<svg width="173" height="36" viewBox="0 0 173 36" fill="none" xmlns="http://www.w3.org/2000/svg">
<path d="M3.1875 8.78516L8.13281 23.4453L13.0195 8.78516H15.6328L9.35156 26H6.87891L0.609375 8.78516H3.1875ZM25.7456 8.31641C28.7847 8.31641 31.0347 9.29297 32.4956 11.2461C33.6362 12.7695 34.2066 14.7188 34.2066 17.0938C34.2066 19.6641 33.5542 21.8008 32.2495 23.5039C30.7183 25.5039 28.5347 26.5039 25.6987 26.5039C23.0503 26.5039 20.9683 25.6289 19.4527 23.8789C18.1011 22.1914 17.4253 20.0586 17.4253 17.4805C17.4253 15.1523 18.0034 13.1602 19.1597 11.5039C20.6441 9.37891 22.8394 8.31641 25.7456 8.31641ZM25.98 24.418C28.0347 24.418 29.5191 23.6836 30.4331 22.2148C31.355 20.7383 31.8159 19.043 31.8159 17.1289C31.8159 15.1055 31.2847 13.4766 30.2222 12.2422C29.1675 11.0078 27.7222 10.3906 25.8862 10.3906C24.105 10.3906 22.6519 11.0039 21.5269 12.2305C20.4019 13.4492 19.8394 15.25 19.8394 17.6328C19.8394 19.5391 20.3198 21.1484 21.2808 22.4609C22.2495 23.7656 23.8159 24.418 25.98 24.418ZM37.4756 8.78516H39.8077V23.9492H48.5264V26H37.4756V8.78516ZM62.0611 8.78516V10.8359H56.2603V26H53.8931V10.8359H48.0923V8.78516H62.0611ZM64.9083 8.78516H76.8497V10.8945H67.2403V16.1211H75.6895V18.1719H67.2403V26H64.9083V8.78516ZM79.8375 8.78516H82.1695V23.9492H90.8883V26H79.8375V8.78516ZM93.8995 8.78516H106.45V10.8945H96.173V16.1211H105.677V18.1133H96.173V23.9492H106.626V26H93.8995V8.78516ZM110.387 8.78516H122.938V10.8945H112.661V16.1211H122.165V18.1133H112.661V23.9492H123.114V26H110.387V8.78516ZM139.18 8.78516V10.8359H133.379V26H131.012V10.8359H125.211V8.78516H139.18Z" fill="#151515"/>
<path d="M158 4L159.891 9.10936L165 11L159.891 12.8906L158 18L156.109 12.8906L151 11L156.109 9.10936L158 4Z" fill="#151515"/>
</svg>
